#!OML:ASF I:\Actors\actors\Patient Classification 2\Patient 1\Session 1\actor1.ASF
:FULLY-SPECIFIED
:DEGREES
556
root 0.87105 17.3584 6.29136 -6.95754 -34.3664 2.39198
lowerback 14.1322 -1.1504 -15.7635
upperback 3.17104 -4.11528 -3.97764
thorax -3.70865 -1.96284 5.23989
lowerneck -9.21874 -8.13681 -8.72019
upperneck 32.5448 -15.1789 12.7623
head 14.469 -6.53543 4.21733
rclavicle -4.55217e-014 4.92986e-014
rhumerus 8.86881 -4.44341 -32.7179
rradius 45.9216
rwrist 8.41236
rhand 11.3116 -33.9722
rfingers 7.12502
rthumb 36.3693 -60.1971
lclavicle -4.55217e-014 4.92986e-014
lhumerus -16.2379 -63.1136 107.942
lradius 78.4658
lwrist -9.20753
lhand 24.359 -15.7402
lfingers 7.12502
lthumb 48.572 6.20129
rfemur 25.0459 -16.1171 5.20206
rtibia -42.0269
rfoot 26.9179 -19.8187
rtoes 25.6697
lfemur 35.6974 11.8671 -24.2494
ltibia -34.3389
lfoot 3.66981 20.7507
ltoes -12.1649
557
root 0.851391 17.3612 6.2856 -6.96135 -34.2773 2.39598
lowerback 14.1554 -1.11957 -15.759
upperback 3.13402 -4.07969 -3.92798
thorax -3.7654 -1.93888 5.2883
lowerneck -9.5617 -8.07667 -8.40201
upperneck 32.8351 -15.0345 12.3459
head 14.5807 -6.4541 4.0114
rclavicle -2.74323e-014 3.65764e-014
rhumerus 8.68835 -2.03163 -31.4675
rradius 45.3519
rwrist 8.39407
rhand 11.0248 -33.6107
rfingers 7.12502
rthumb 36.0977 -59.9031
lclavicle -2.74323e-014 3.65764e-014
lhumerus -16.5913 -63.3785 107.861
lradius 78.4747
lwrist -8.48387
lhand 24.2611 -15.8134
lfingers 7.12502
lthumb 48.4819 6.17143
rfemur 25.0906 -15.8126 5.19287
rtibia -41.8526
rfoot 26.2075 -20.1748
rtoes 27.286
lfemur 35.6409 11.8551 -24.1578
ltibia -34.1642
lfoot 3.59479 20.6697
ltoes -12.2581
558
root 0.832062 17.3675 6.28062 -7.00937 -34.1942 2.3786
lowerback 14.1891 -1.10279 -15.7258
upperback 3.14646 -4.0548 -3.87886
thorax -3.77377 -1.92668 5.32114
lowerneck -9.9014 -7.88774 -8.04045
upperneck 32.912 -14.7115 12.0683
head 14.5787 -6.27861 3.88243
rclavicle 3.65764e-014 -5.08889e-014
rhumerus 8.47627 0.598175 -30.2492
rradius 44.9251
rwrist 8.16814
rhand 11.5954 -33.64
rfingers 7.12502
rthumb 36.638 -59.7972
lclavicle 3.65764e-014 -5.08889e-014
lhumerus -16.9154 -63.5883 107.694
lradius 78.4174
lwrist -7.54353
lhand 24.2433 -15.9226
lfingers 7.12502
lthumb 48.4655 6.07008
rfemur 25.1178 -15.5878 5.23142
rtibia -41.6085
rfoot 25.9869 -19.8589
rtoes 26.8434
lfemur 35.6509 11.8397 -24.045
ltibia -34.0042
lfoot 3.54713 20.5864
ltoes -12.8543
559
root 0.813734 17.3749 6.27654 -7.05125 -34.1588 2.28782
lowerback 14.1699 -1.07799 -15.5581
upperback 3.23295 -3.98323 -3.86688
thorax -3.6944 -1.9034 5.22978
lowerneck -10.1928 -7.52719 -7.58664
upperneck 32.7036 -14.1862 12.0328
head 14.425 -5.9844 3.86869
rclavicle -4.63168e-014 -3.49861e-014
rhumerus 8.11078 3.40453 -29.1193
rradius 44.6378
rwrist 7.42888
rhand 11.9745 -33.5243
rfingers 7.12502
rthumb 36.9966 -59.5897
lclavicle -4.63168e-014 -3.49861e-014
lhumerus -17.0265 -63.9851 107.243
lradius 78.2906
lwrist -6.86505
lhand 24.1538 -16.1719
lfingers 7.12502
lthumb 48.3831 5.86019
rfemur 25.1227 -15.2796 5.33391
rtibia -41.2862
rfoot 25.5948 -19.6437
rtoes 26.7202
lfemur 35.6788 11.7851 -23.8805
ltibia -33.8097
lfoot 3.42907 20.5871
ltoes -13.406
560
root 0.792145 17.3858 6.26916 -7.09364 -34.2728 2.1018
lowerback 14.1581 -0.950479 -15.4102
upperback 3.34271 -3.77727 -3.81143
thorax -3.61522 -1.81538 5.17633
lowerneck -10.5141 -7.14187 -6.99627
upperneck 32.4899 -13.614 11.883
head 14.2512 -5.66386 3.78982
rclavicle 9.38264e-014 -2.06736e-014
rhumerus 7.60804 6.55801 -28.0196
rradius 44.4628
rwrist 6.33818
rhand 11.7268 -33.4185
rfingers 7.12502
rthumb 36.7622 -59.544
lclavicle 9.38264e-014 -2.06736e-014
lhumerus -17.0985 -64.6375 106.733
lradius 78.1523
lwrist -6.47117
lhand 23.9484 -16.5525
lfingers 7.12502
lthumb 48.1939 5.56937
rfemur 25.0893 -14.7624 5.57585
rtibia -40.8806
rfoot 25.1045 -19.4025
rtoes 26.6171
lfemur 35.7472 11.7816 -23.5971
ltibia -33.5785
lfoot 3.27827 20.6874
ltoes -13.4254
561
root 0.768597 17.3976 6.25851 -7.21755 -34.4515 1.91191
lowerback 14.2481 -0.753843 -15.3577
upperback 3.46152 -3.51182 -3.70736
thorax -3.58337 -1.69465 5.22252
lowerneck -10.8968 -6.72666 -6.39358
upperneck 32.3007 -12.9892 11.6822
head 14.0976 -5.32089 3.69498
rclavicle 6.1822e-014 5.56597e-014
rhumerus 7.09906 9.9387 -27.0544
rradius 44.3612
rwrist 5.53643
rhand 11.4087 -33.0623
rfingers 7.12502
rthumb 36.4612 -59.2641
lclavicle 6.1822e-014 5.56597e-014
lhumerus -17.3518 -65.2954 106.428
lradius 78.0016
lwrist -5.96727
lhand 23.6746 -16.9526
lfingers 7.12502
lthumb 47.9416 5.28743
rfemur 25.0912 -14.1794 5.83674
rtibia -40.3892
rfoot 24.6985 -18.9808
rtoes 26.3023
lfemur 35.9116 11.8135 -23.2711
ltibia -33.341
lfoot 3.10097 20.814
ltoes -13.0415
562
root 0.753243 17.4091 6.25259 -7.27241 -34.5083 1.695
lowerback 14.349 -0.63325 -15.1455
upperback 3.57427 -3.32436 -3.59949
thorax -3.55912 -1.61159 5.19766
lowerneck -11.3928 -6.24506 -5.79221
upperneck 32.1608 -12.2476 11.4049
head 13.9784 -4.92938 3.58689
rclavicle 9.70069e-014 3.18055e-014
rhumerus 6.62701 13.3899 -26.2769
rradius 44.3075
rwrist 4.94047
rhand 11.3167 -32.1866
rfingers 7.12502
rthumb 36.3741 -58.4103
lclavicle 9.70069e-014 3.18055e-014
lhumerus -17.8763 -65.7788 106.439
lradius 77.8339
lwrist -4.85588
lhand 23.2923 -17.3474
lfingers 7.12502
lthumb 47.5889 5.05502
rfemur 25.0272 -13.8338 6.07168
rtibia -39.8155
rfoot 24.3576 -18.5255
rtoes 26.1757
lfemur 36.0084 11.685 -23.0084
ltibia -33.1014
lfoot 2.90137 20.9504
ltoes -12.8326
563
root 0.742764 17.4225 6.24648 -7.22727 -34.5344 1.38785
lowerback 14.4638 -0.534274 -14.8554
upperback 3.68124 -3.15291 -3.43533
thorax -3.54636 -1.53508 5.19325
lowerneck -11.9148 -5.69974 -5.15761
upperneck 31.9877 -11.3921 11.0477
head 13.8382 -4.49306 3.45808
rclavicle 2.84262e-014 5.08889e-014
rhumerus 6.15237 16.8583 -25.6807
rradius 44.3526
rwrist 3.95343
rhand 11.5558 -31.2693
rfingers 7.12502
rthumb 36.6004 -57.436
lclavicle 2.84262e-014 5.08889e-014
lhumerus -18.5908 -66.2222 106.654
lradius 77.7049
lwrist -3.10391
lhand 22.6251 -17.7231
lfingers 7.12502
lthumb 46.9722 4.95532
rfemur 24.8751 -13.5627 6.38647
rtibia -39.175
rfoot 23.9398 -18.0956
rtoes 26.2122
lfemur 36.0357 11.5105 -22.7075
ltibia -32.8651
lfoot 2.74245 21.1074
ltoes -12.8449
564
root 0.731908 17.4396 6.23567 -7.17129 -34.6166 0.991124
lowerback 14.6274 -0.384124 -14.5189
upperback 3.84524 -2.91039 -3.25563
thorax -3.51315 -1.42826 5.16896
lowerneck -12.4438 -5.0946 -4.41187
upperneck 31.7093 -10.4729 10.6964
head 13.654 -4.01751 3.31941
rclavicle 2.68359e-014 5.08889e-014
rhumerus 5.50853 20.0861 -25.4483
rradius 44.6102
rwrist 2.23272
rhand 11.9998 -30.9131
rfingers 7.12502
rthumb 37.0205 -56.9722
lclavicle 2.68359e-014 5.08889e-014
lhumerus -19.3029 -66.8547 106.829
lradius 77.5627
lwrist -1.66822
lhand 21.5263 -18.3588
lfingers 7.12502
lthumb 45.9541 4.75478
rfemur 24.7226 -13.1822 6.80738
rtibia -38.4836
rfoot 23.4244 -17.6847
rtoes 26.3392
lfemur 36.0993 11.3838 -22.2965
ltibia -32.6324
lfoot 2.63543 21.3111
ltoes -12.8439
565
root 0.722133 17.4586 6.22428 -7.05687 -34.6985 0.543149
lowerback 14.7451 -0.220435 -14.0272
upperback 4.06839 -2.61645 -3.13482
thorax -3.41117 -1.30387 4.98373
lowerneck -13.0404 -4.46293 -3.38102
upperneck 31.3783 -9.53224 10.1569
head 13.4489 -3.52083 3.05596
rclavicle 1.34378e-013 2.54444e-014
rhumerus 4.64391 22.9069 -25.6771
rradius 45.0546
rwrist 0.0237098
rhand 12.2867 -30.4372
rfingers 7.12502
rthumb 37.2919 -56.4257
lclavicle 1.34378e-013 2.54444e-014
lhumerus -20.014 -67.7308 106.944
lradius 77.4222
lwrist -1.20672
lhand 20.3649 -19.3169
lfingers 7.12502
lthumb 44.8749 4.23176
rfemur 24.5259 -12.7844 7.2858
rtibia -37.764
rfoot 22.9265 -17.2425
rtoes 26.2447
lfemur 36.1229 11.2301 -21.8576
ltibia -32.3882
lfoot 2.50457 21.5081
ltoes -12.9339
566
root 0.714698 17.477 6.21179 -6.92762 -34.7461 0.136488
lowerback 14.8692 -0.0599397 -13.5182
upperback 4.31397 -2.32554 -3.04542
thorax -3.28727 -1.18224 4.75379
lowerneck -13.6476 -3.7908 -2.22252
upperneck 30.9793 -8.53741 9.49333
head 13.2227 -3.00458 2.72988
rclavicle -6.67916e-014 2.70347e-014
rhumerus 3.79059 25.3557 -26.2702
rradius 45.477
rwrist -1.70058
rhand 11.9345 -29.7677
rfingers 7.12502
rthumb 36.9588 -55.8428
lclavicle -6.67916e-014 2.70347e-014
lhumerus -20.6823 -68.6963 107.016
lradius 77.3554
lwrist -1.1818
lhand 19.5402 -20.1802
lfingers 7.12502
lthumb 44.1065 3.66289
rfemur 24.2725 -12.4349 7.72306
rtibia -37.0322
rfoot 22.4893 -16.7375
rtoes 25.7669
lfemur 36.0853 11.0456 -21.4803
ltibia -32.1312
lfoot 2.30457 21.6806
ltoes -12.8461
567
root 0.710678 17.4964 6.19706 -6.79674 -34.717 -0.197441
lowerback 15.0379 0.0793434 -13.0897
upperback 4.5507 -2.08198 -2.93845
thorax -3.18098 -1.0809 4.59441
lowerneck -14.2356 -3.09479 -1.32219
upperneck 30.5906 -7.52832 9.01955
head 13.0434 -2.493 2.52992
rclavicle 1.63003e-014 3.18055e-015
rhumerus 2.92601 27.3994 -27.1639
rradius 45.8988
rwrist -2.16378
rhand 11.6844 -29.8238
rfingers 7.12502
rthumb 36.7222 -55.9596
lclavicle 1.63003e-014 3.18055e-015
lhumerus -21.4084 -69.506 107.224
lradius 77.2919
lwrist -0.861301
lhand 18.8604 -20.8354
lfingers 7.12502
lthumb 43.472 3.24161
rfemur 23.9679 -12.146 8.08598
rtibia -36.2957
rfoot 22.0485 -16.2972
rtoes 25.2732
lfemur 35.9789 10.8479 -21.1771
ltibia -31.8885
lfoot 2.12181 21.8402
ltoes -12.5609
568
root 0.708634 17.517 6.18069 -6.57461 -34.6116 -0.550216
lowerback 15.2281 0.183163 -12.7008
upperback 4.74273 -1.89423 -2.77543
thorax -3.11904 -1.00112 4.52586
lowerneck -14.7606 -2.4037 -0.563653
upperneck 30.2257 -6.51037 8.54759
head 12.8846 -1.99802 2.36024
rclavicle -1.02573e-013 7.95139e-015
rhumerus 2.02719 29.186 -28.2848
rradius 46.278
rwrist -2.09767
rhand 12.2268 -29.8627
rfingers 7.12502
rthumb 37.2352 -55.866
lclavicle -1.02573e-013 7.95139e-015
lhumerus -22.3519 -70.0805 107.75
lradius 77.1481
lwrist -0.0437678
lhand 17.9697 -21.4315
lfingers 7.12502
lthumb 42.6392 2.94072
rfemur 23.5914 -11.9218 8.47468
rtibia -35.5708
rfoot 21.5541 -16.0467
rtoes 25.2152
lfemur 35.7867 10.6301 -20.8704
ltibia -31.6842
lfoot 2.0151 21.9681
ltoes -12.3577
569
root 0.708627 17.5377 6.16406 -6.25595 -34.4356 -0.961496
lowerback 15.4711 0.251396 -12.2726
upperback 4.88908 -1.75589 -2.5742
thorax -3.12578 -0.938751 4.48539
lowerneck -15.2115 -1.73782 0.198001
upperneck 29.8648 -5.5148 7.97515
head 12.7266 -1.52995 2.15003
rclavicle 1.11319e-014 -3.33958e-014
rhumerus 1.20519 30.9319 -29.6029
rradius 46.4228
rwrist -2.64291
rhand 12.5593 -29.4339
rfingers 7.12502
rthumb 37.5496 -55.3543
lclavicle 1.11319e-014 -3.33958e-014
lhumerus -23.4175 -70.6329 108.476
lradius 76.9976
lwrist 0.979529
lhand 16.8779 -21.9739
lfingers 7.12502
lthumb 41.6162 2.74344
rfemur 23.1661 -11.8123 8.91234
rtibia -34.8643
rfoot 21.0169 -15.8923
rtoes 25.5029
lfemur 35.5412 10.3828 -20.529
ltibia -31.5248
lfoot 1.96311 22.0377
ltoes -12.3273
570
root 0.711542 17.5568 6.14651 -5.90464 -34.1675 -1.30387
lowerback 15.7277 0.306399 -11.8137
upperback 5.0166 -1.63464 -2.4251
thorax -3.15943 -0.88183 4.37427
lowerneck -15.6887 -1.13683 0.790962
upperneck 29.5821 -4.6501 7.58307
head 12.6405 -1.11605 2.02275
rclavicle 3.89618e-014 7.95139e-014
rhumerus 0.573457 33.1668 -30.8431
rradius 46.3376
rwrist -4.54399
rhand 12.2298 -29.2495
rfingers 7.12502
rthumb 37.238 -55.2521
lclavicle 3.89618e-014 7.95139e-014
lhumerus -24.5549 -71.3608 109.293
lradius 76.9166
lwrist 1.67981
lhand 15.7761 -22.6021
lfingers 7.12502
lthumb 40.5817 2.44582
rfemur 22.6902 -11.8282 9.2803
rtibia -34.1808
rfoot 20.5065 -15.6746
rtoes 25.5668
lfemur 35.214 10.148 -20.2555
ltibia -31.4134
lfoot 1.98254 22.012
ltoes -12.5012
